<svg version="1.1" id="Layer_1" xmlns="http://www.w3.org/2000/svg" xmlns:xlink="http://www.w3.org/1999/xlink" x="0px" y="0px"
	 width="100%" viewBox="0 0 1024 1024" enable-background="new 0 0 1024 1024" xml:space="preserve">
<path fill="#000000" opacity="1.000000" stroke="none" 
	d="
M124.757408,495.081207 
	C129.482742,407.975983 158.813339,330.788239 214.478012,264.160065 
	C269.190552,198.671585 338.382782,155.866348 421.265167,135.357376 
	C458.222076,126.212517 495.817200,122.910744 533.747253,125.000732 
	C596.330383,128.449112 654.980469,145.702164 709.037231,177.626297 
	C785.402222,222.724945 840.213684,286.570312 873.598083,368.705200 
	C886.381287,400.155548 894.440552,432.850891 898.464050,466.596191 
	C901.551025,492.486420 902.380920,518.404724 900.117188,544.341492 
	C893.712646,617.722412 869.224792,684.443848 825.167908,743.642212 
	C776.944031,808.439697 714.556641,854.213745 638.247681,880.707336 
	C609.704529,890.617126 580.250000,896.649292 550.102356,899.520630 
	C527.475708,901.675842 504.885468,902.011780 482.277344,900.187805 
	C436.732574,896.513489 393.074127,885.353699 351.467804,866.382751 
	C310.116852,847.528320 273.292755,821.999817 240.919968,790.191956 
	C198.914810,748.919861 167.729675,700.572021 147.640961,645.150330 
	C135.431931,611.467407 128.186264,576.759888 125.523476,541.013855 
	C124.393982,525.851074 124.891090,510.717621 124.757408,495.081207 
M212.067688,281.504669 
	C209.828430,283.744873 207.575607,285.971710 205.352036,288.227386 
	C187.532623,306.303833 175.785599,327.835724 169.215012,352.238861 
	C166.961136,360.609741 165.140915,369.170868 161.049026,376.837158 
	C151.766479,394.228149 143.410233,411.782013 141.481735,431.872955 
	C140.678314,440.242981 137.985428,448.424133 136.409637,456.765381 
	C133.249008,473.495667 130.936081,490.293640 130.511841,507.276154 
	C130.048080,525.841614 133.296951,544.098206 136.808578,562.239441 
	C139.272614,574.968689 139.292999,588.118347 143.340210,600.544312 
	C146.220734,609.388306 150.381134,617.816467 151.812134,627.128479 
	C153.708725,639.470581 157.612000,650.975342 165.100464,661.211731 
	C168.563263,665.945251 170.042511,671.717712 171.329865,677.441345 
	C172.905640,684.447388 174.630341,691.433167 179.049454,697.311279 
	C184.275070,704.262207 188.694885,711.692139 192.662201,719.409485 
	C195.209167,724.363892 198.605438,728.662598 202.858459,732.243652 
	C207.024414,735.751404 210.055984,740.015869 212.267227,744.983887 
	C215.183701,751.536072 218.444885,757.860962 223.414322,763.230591 
	C248.414062,790.243652 275.478729,814.845337 306.690948,834.575012 
	C314.275055,839.368958 321.337036,845.343384 329.965424,848.093933 
	C357.263641,856.796143 384.951569,864.019043 413.258362,868.730469 
	C433.434296,872.088562 453.936951,873.558777 473.681427,879.462524 
	C479.420898,881.178650 485.523224,881.678650 491.503326,881.461304 
	C507.988037,880.862122 524.283630,878.296265 540.626709,876.232544 
	C559.610291,873.835632 578.412354,870.147339 597.512207,868.545410 
	C608.440552,867.628906 619.384216,866.676331 629.980225,863.364685 
	C653.275085,856.084229 674.133240,843.975586 694.618713,831.107239 
	C697.432983,829.339417 700.033020,827.230591 702.732300,825.279663 
	C697.673523,826.683228 693.062378,828.898926 687.414429,827.675049 
	C687.805115,824.406250 689.855713,822.825134 691.444763,821.018494 
	C696.278442,815.523193 702.097351,810.859619 705.919678,804.516174 
	C716.664795,786.683960 727.040161,768.624023 738.036011,750.949097 
	C749.819153,732.008728 759.857544,711.844849 774.261292,694.697632 
	C790.830078,674.973022 805.396179,653.991638 818.425598,631.813599 
	C826.364502,618.300354 835.572449,605.600342 846.406189,594.187256 
	C848.267151,592.226746 850.046570,589.853455 853.231323,589.818726 
	C854.735046,596.943481 854.637268,603.206726 850.471313,609.716492 
	C839.347961,627.097961 827.847778,644.275208 819.037048,663.067383 
	C811.191528,679.801086 804.248657,696.996094 794.833069,712.957336 
	C782.809387,733.339783 766.693481,750.912903 754.709778,771.367371 
	C747.363403,783.906555 737.404053,794.561707 727.970093,805.562073 
	C725.366577,808.597778 722.459900,812.755310 725.570801,816.187683 
	C728.907532,819.869263 732.213379,815.708313 734.961975,813.622314 
	C767.608154,788.847534 795.573914,759.580994 818.941284,725.907410 
	C849.770874,681.480347 869.696838,632.844299 875.865540,578.875183 
	C876.268616,575.349304 876.924500,571.665222 879.376282,569.139099 
	C886.467102,561.833618 886.716309,552.850525 886.692017,543.562500 
	C886.600464,508.608673 888.346741,473.587708 882.031189,438.897583 
	C881.181274,434.228821 882.018738,429.202515 877.041260,426.112946 
	C876.183838,425.580750 876.013733,423.737244 875.769409,422.453156 
	C873.591003,411.002197 871.105530,399.642700 867.389404,388.559509 
	C862.195496,373.068848 855.204346,358.272430 849.852966,342.859406 
	C844.619934,327.787018 836.850708,314.518921 825.069763,303.580231 
	C817.264526,296.332977 809.568848,288.934967 803.386169,280.132263 
	C796.377930,270.154266 791.120605,259.126953 784.455750,248.957001 
	C779.800781,241.853851 775.186462,234.559692 767.449036,230.318359 
	C758.981079,225.676590 751.754944,219.685974 745.950012,211.974838 
	C740.928772,205.304855 734.257935,201.703293 726.166687,199.435501 
	C714.353760,196.124588 704.100220,189.259384 695.240845,180.984222 
	C689.053833,175.205154 682.737061,170.609528 674.354370,169.180801 
	C665.678894,167.702209 657.719666,164.514282 650.513916,159.428299 
	C646.231750,156.405807 641.427856,154.455795 636.309814,153.512070 
	C629.030151,152.169724 622.421326,148.956848 615.494873,146.635406 
	C604.778320,143.043671 595.299011,136.124451 583.800720,134.789154 
	C578.351135,134.156296 572.840393,134.071091 567.367188,133.618500 
	C540.828918,131.424011 514.343872,131.892273 487.755981,133.545517 
	C466.530334,134.865341 446.291687,143.392136 424.727753,141.363266 
	C424.246552,141.317993 423.738831,141.487900 423.250702,141.591461 
	C402.819336,145.925964 383.035431,152.302872 363.856689,160.549362 
	C345.761353,168.330032 329.122101,178.966568 311.393127,187.442856 
	C303.206146,191.357117 296.535583,196.808243 290.670380,203.542084 
	C286.626282,208.185150 283.016632,213.662018 277.463715,216.348145 
	C263.440369,223.131607 252.441269,233.164322 243.240677,245.487595 
	C241.859436,247.337631 240.056610,248.900635 238.321335,250.454041 
	C228.677338,259.087250 218.283127,267.073273 213.492630,279.814911 
	C213.326508,280.256744 212.872360,280.590240 212.067688,281.504669 
z"/>
<path fill="#000000" opacity="1.000000" stroke="none" 
	d="
M273.778564,502.789978 
	C287.482422,489.170105 300.860931,475.730621 313.451294,461.534119 
	C314.000977,460.914337 314.732056,460.261658 314.891815,459.519531 
	C316.674896,451.235596 323.993561,446.504669 327.702728,439.439697 
	C330.058655,434.952301 334.071777,431.673553 337.993256,428.645477 
	C347.731110,421.126221 354.852966,411.611603 360.096985,400.669250 
	C365.384033,389.637177 373.141632,380.635162 381.988739,372.411957 
	C389.205048,365.704529 395.786957,358.455597 401.439636,350.338074 
	C409.000641,339.479980 419.476898,331.157043 427.731323,320.949799 
	C448.040131,295.836456 468.408295,270.735748 485.680939,243.343536 
	C489.846497,236.737488 495.541229,231.648834 501.925751,227.355743 
	C505.085175,225.231339 507.338013,222.394958 509.397949,219.405884 
	C524.224487,197.892014 538.952759,176.310379 553.710938,154.749374 
	C554.275085,153.925156 554.755249,153.031738 555.397949,152.275391 
	C556.793274,150.633209 558.204895,148.538483 560.637451,149.060593 
	C562.990479,149.565643 562.895813,152.065323 563.369995,153.948227 
	C565.708923,163.235855 563.057861,171.771179 559.161865,180.014328 
	C553.112610,192.813324 544.136658,203.609909 534.769409,214.004517 
	C522.678955,227.421005 514.511963,243.212082 506.234924,258.993286 
	C501.118835,268.747711 495.082886,277.930450 488.574829,286.810669 
	C487.500397,288.276764 486.573853,289.864471 485.703552,291.463776 
	C484.527618,293.624817 483.660980,295.682434 480.640961,296.315704 
	C478.748932,296.712463 477.007904,298.636353 475.557495,300.206207 
	C462.221436,314.640594 448.480743,328.738983 435.801819,343.733398 
	C418.802612,363.837036 404.076782,385.706573 388.970093,407.250671 
	C375.898376,425.892639 364.136566,445.449799 347.899200,461.784882 
	C340.133789,469.597046 335.953888,480.169006 329.919617,489.345215 
	C324.363678,497.793976 315.288879,502.876221 309.796265,511.351562 
	C304.003052,520.290649 297.897308,529.026978 291.937408,537.858215 
	C290.036774,540.674438 287.439697,542.652161 284.135132,544.203979 
	C288.338318,541.156067 283.325958,537.543396 285.199066,534.277222 
	C281.114227,536.667053 279.104218,540.639954 276.717651,543.875916 
	C276.587677,546.293884 279.159332,545.593140 279.734314,547.029846 
	C279.304230,547.506653 279.049286,548.009705 278.645599,548.204346 
	C268.975586,552.867615 262.873383,561.175171 256.435852,569.310242 
	C240.746262,589.137146 222.826263,607.127625 208.204849,627.852844 
	C202.433075,636.034180 196.240570,643.935181 187.899292,649.724365 
	C185.165588,651.621643 181.889771,655.397888 178.752975,652.886658 
	C175.624283,650.381897 178.575058,646.386841 179.836380,643.279053 
	C181.146973,640.049927 182.717499,636.878418 184.558945,633.921143 
	C191.552719,622.689331 196.989426,610.749878 201.044800,598.185669 
	C204.144562,588.582214 209.720413,580.651733 216.867371,573.693970 
	C219.374268,571.253479 221.714996,568.632263 224.320419,566.304932 
	C232.235947,559.234314 238.998764,551.500244 242.099258,540.950500 
	C243.818130,535.101868 248.237411,530.672974 252.204269,526.201477 
	C259.167023,518.352966 266.404053,510.747833 273.778564,502.789978 
z"/>
<path fill="#000000" opacity="1.000000" stroke="none" 
	d="
M672.772583,609.737793 
	C663.185242,623.366455 653.244202,636.285583 644.889160,650.369568 
	C636.905212,663.828003 626.543396,675.567078 616.281006,687.404053 
	C604.293884,701.230286 593.298645,715.924866 582.043030,730.375183 
	C564.647583,752.708130 547.743896,775.463989 529.051880,796.718994 
	C516.528320,810.959656 503.371216,824.664307 490.663757,838.768677 
	C481.833313,848.569885 469.977661,854.330017 458.108307,859.718628 
	C454.515930,861.349487 452.536133,861.262146 449.848755,856.556702 
	C446.319214,850.376587 448.104309,847.600464 452.405792,843.906311 
	C464.033295,833.920654 472.300323,821.165833 480.939301,808.724365 
	C493.077667,791.243042 509.008698,777.125793 523.106934,761.382812 
	C530.774231,752.821167 538.552002,744.352600 546.470703,736.023376 
	C556.103699,725.890808 562.214417,713.354248 569.812744,701.865662 
	C576.041138,692.448364 583.017273,683.857178 591.330200,676.390808 
	C607.392273,661.964661 621.737732,646.338257 633.052185,627.665771 
	C646.593506,605.318176 663.521973,585.192078 677.560059,563.105652 
	C685.892822,549.995605 691.878235,535.642883 699.654419,522.268982 
	C711.375366,502.110535 720.703674,480.687561 732.543030,460.627045 
	C737.259460,452.635651 742.969482,445.137085 749.377197,438.344391 
	C763.066406,423.833130 774.353516,407.637970 784.228821,390.358124 
	C789.355164,381.387909 795.231812,372.883392 801.886475,364.942841 
	C806.325806,359.645477 811.463379,355.212585 817.652405,352.089203 
	C818.936707,351.441040 820.370850,350.339142 821.854004,351.271240 
	C823.585571,352.359375 822.971680,354.197479 822.809082,355.827942 
	C821.496643,368.990662 815.389038,380.229370 808.608948,391.194641 
	C784.262207,430.570038 758.790588,469.253601 735.593628,509.333740 
	C728.270264,521.987244 720.722961,534.534668 715.178955,548.186951 
	C713.152100,553.177979 709.499634,557.580566 706.223633,561.979675 
	C694.679504,577.481384 684.064514,593.627502 672.772583,609.737793 
z"/>
<path fill="#000000" opacity="1.000000" stroke="none" 
	d="
M538.878540,434.921173 
	C544.912598,426.102173 550.818420,417.630157 556.550537,409.042145 
	C562.076660,400.762787 570.357666,395.186188 577.085571,388.074524 
	C586.080933,378.566040 593.014465,367.623077 601.094604,357.506500 
	C607.217468,349.840576 612.717285,341.676971 618.490723,333.732147 
	C620.075867,331.550781 621.506287,329.375610 617.490723,327.987732 
	C618.664429,324.769135 620.750488,322.586334 622.978577,320.679749 
	C639.597229,306.459229 651.841858,288.549957 665.025757,271.397491 
	C677.407471,255.288712 690.195129,239.490295 702.914856,223.644089 
	C706.754578,218.860550 711.447327,215.127441 717.941895,214.743423 
	C722.611572,214.467316 724.188477,216.599396 722.473145,220.879044 
	C721.675110,222.870117 720.595032,224.795349 719.370056,226.561218 
	C686.051514,274.592072 654.189392,323.654205 618.225708,369.814148 
	C596.015320,398.321625 573.633362,426.695496 551.425598,455.205048 
	C535.247131,475.974365 521.399292,498.401642 505.886810,519.645935 
	C494.022705,535.893738 482.309814,552.210449 469.293304,567.641357 
	C452.247925,587.848450 437.263458,609.718140 421.481750,630.941589 
	C391.663422,671.041626 362.026886,711.313965 326.262878,746.519165 
	C316.886108,755.749451 307.539001,765.026489 297.018921,772.997864 
	C293.963348,775.313110 290.895020,777.682129 287.194641,778.858215 
	C283.125885,780.151367 281.060028,778.210449 281.801880,773.992249 
	C282.159332,771.960083 283.240631,770.264526 284.543488,768.733215 
	C306.466339,742.966553 325.572876,714.977173 347.269867,689.053528 
	C356.365997,678.185486 363.116486,666.093567 369.680847,653.742188 
	C371.341034,650.618408 372.547119,647.019592 375.904419,644.988892 
	C378.020782,646.842407 375.219635,648.970398 376.913544,651.029724 
	C381.660309,647.980835 384.709045,643.201416 388.195587,639.016479 
	C408.235840,614.961182 428.239899,590.879211 447.398926,566.096863 
	C456.227417,554.677246 461.475311,541.089661 470.232758,529.799866 
	C484.910431,510.877838 497.191345,490.251770 512.945618,472.047150 
	C522.692810,460.783905 530.175232,447.560730 538.878540,434.921173 
z"/>
<path fill="#000000" opacity="1.000000" stroke="none" 
	d="
M386.587494,252.620834 
	C392.184692,242.127838 400.196533,234.235321 408.693878,226.628021 
	C430.530731,207.078354 452.141449,187.276123 473.853943,167.587387 
	C474.673218,166.844467 475.285400,165.662186 477.011383,165.971497 
	C477.956909,168.558380 476.466797,170.691437 475.358734,172.798981 
	C470.375214,182.277390 463.544769,190.518127 457.496002,199.285446 
	C438.487579,226.837097 417.615692,253.074280 399.589630,281.316071 
	C390.265167,295.924896 382.168701,311.250183 373.641266,326.321594 
	C361.609802,347.585907 347.646423,367.511841 330.463501,384.850891 
	C310.917633,404.574371 293.957367,426.343201 277.501221,448.559967 
	C248.921951,487.143616 218.504501,524.182251 185.721878,559.280029 
	C179.249908,566.209106 173.709930,574.005127 166.534714,580.289856 
	C164.101608,582.421021 161.728668,584.940613 157.527252,584.230408 
	C156.951553,578.457703 159.607269,573.840820 162.342239,569.368408 
	C168.256393,559.697144 174.764679,550.400146 181.823990,541.548279 
	C204.063995,513.660767 221.396454,482.764374 238.028458,451.382660 
	C251.294189,426.352478 266.437286,402.414062 281.441406,378.400116 
	C291.686493,362.002960 301.851868,345.575256 315.504150,331.680634 
	C327.918030,319.046448 342.221466,308.664764 356.133484,297.827332 
	C360.145569,294.701904 363.380219,291.081421 365.974854,286.700897 
	C372.678619,275.382935 379.585083,264.184998 386.587494,252.620834 
z"/>
<path fill="#000000" opacity="1.000000" stroke="none" 
	d="
M192.846100,430.812927 
	C181.815613,446.524139 168.200806,459.707642 157.352203,475.117584 
	C155.749908,477.393524 153.569962,479.379822 151.325592,481.056000 
	C148.739761,482.987122 145.895248,485.673859 142.367813,483.139618 
	C138.744537,480.536530 139.816147,476.907135 141.282608,473.641907 
	C142.846848,470.159027 144.530121,466.664642 146.657364,463.509644 
	C168.566910,431.014771 186.567764,396.184357 206.965240,362.787384 
	C225.938278,331.722626 246.400421,301.793182 272.479553,276.124481 
	C277.577240,271.107025 282.831818,266.167023 288.502106,261.829285 
	C302.883331,250.827667 311.353455,235.078430 321.960052,221.051239 
	C325.894470,215.847931 329.918671,210.779739 334.932526,206.578186 
	C346.428467,196.944717 355.085907,184.904602 363.630005,172.770981 
	C366.042419,169.345093 368.622803,166.063812 372.071991,163.647629 
	C374.342621,162.057022 376.790497,160.546814 379.846252,161.933914 
	C380.046753,164.504639 378.604126,166.238998 377.441437,167.972107 
	C354.629730,201.975555 334.472839,237.742432 309.194824,270.114929 
	C298.320007,284.041870 287.042786,297.613739 275.302765,310.795410 
	C258.574341,329.578064 245.703476,350.989319 232.746902,372.350983 
	C220.553589,392.454224 207.005127,411.623840 192.846100,430.812927 
z"/>
<path fill="#000000" opacity="1.000000" stroke="none" 
	d="
M369.181458,790.419922 
	C376.934052,771.391113 388.756561,755.226685 399.627441,738.467957 
	C411.313660,720.452271 422.237213,701.941772 433.928528,683.929504 
	C443.375977,669.374329 453.876648,655.817627 468.825592,646.003967 
	C475.652802,641.521912 482.325653,636.210571 487.729279,629.805115 
	C496.203003,619.760559 507.183289,613.253906 518.641052,607.369385 
	C524.427979,604.397339 529.872803,600.868164 535.349243,597.373901 
	C537.830017,595.790955 540.244263,592.617493 543.725952,595.428467 
	C547.479004,598.458557 550.830627,602.035950 549.252258,607.322266 
	C546.743530,615.724121 543.846802,623.360596 535.121094,628.417114 
	C518.000671,638.338318 502.391296,650.744202 485.066010,660.429260 
	C481.697113,662.312561 479.523651,664.941101 478.302368,668.666565 
	C475.953857,675.830627 472.166138,681.048279 463.535034,681.992615 
	C456.353210,682.778381 449.902863,686.269592 445.260651,692.271912 
	C444.257782,693.568665 442.786530,694.842346 444.418854,696.592346 
	C447.056030,699.419678 445.288696,701.440125 443.215424,703.340759 
	C441.254517,705.138367 439.026031,706.663208 437.187592,708.570557 
	C434.639343,711.214294 432.339905,714.076111 432.172302,718.055603 
	C431.631989,730.884277 427.001984,742.343933 420.063416,752.918213 
	C414.573120,761.285278 409.963470,770.131592 405.152679,778.877197 
	C401.288666,785.901611 396.841064,792.550110 391.219604,798.311768 
	C387.185913,802.446228 382.345764,805.323975 376.690216,806.692932 
	C369.524048,808.427429 365.600769,804.730347 367.014801,797.471130 
	C367.457733,795.197327 368.346832,793.010498 369.181458,790.419922 
z"/>
<path fill="#000000" opacity="1.000000" stroke="none" 
	d="
M479.682800,388.495239 
	C476.655121,409.323029 466.085052,425.973602 453.264801,441.345459 
	C441.942932,454.920685 429.112793,467.081970 415.675446,478.541473 
	C409.440002,483.859100 404.925018,490.860474 398.217560,495.646576 
	C396.595703,496.803864 395.061127,498.124084 393.322784,499.068024 
	C390.666779,500.510254 387.767944,501.933960 384.900085,499.763824 
	C382.046539,497.604523 381.717499,494.538300 382.516754,491.191864 
	C386.092834,476.218262 393.384491,462.960052 401.864777,450.366577 
	C409.899231,438.435150 420.077362,428.266724 430.369843,418.305115 
	C443.902863,405.207123 455.376587,390.820221 462.888275,373.292816 
	C468.916077,359.227692 475.883820,345.560120 482.604126,331.798981 
	C486.742188,323.325500 492.548309,316.047760 499.666107,309.858917 
	C500.905029,308.781677 502.384735,307.913666 503.875183,307.205902 
	C508.739441,304.896118 511.628418,306.282501 513.391357,311.492950 
	C515.412964,317.468018 513.258728,322.599884 510.312744,327.594849 
	C502.615479,340.645599 495.097473,353.807587 487.126709,366.689301 
	C483.005646,373.349396 479.994537,380.175934 479.682800,388.495239 
z"/>
<path fill="#000000" opacity="1.000000" stroke="none" 
	d="
M665.825562,566.741943 
	C653.123169,585.545471 611.134583,633.811584 605.881836,635.487366 
	C604.962708,631.069885 605.891296,626.797241 607.480713,622.928040 
	C615.129028,604.308838 622.854370,585.699585 633.347778,568.434937 
	C635.409668,565.042542 637.810181,561.743713 640.576721,558.911926 
	C650.917908,548.326782 658.679382,535.971741 665.991760,523.241882 
	C670.143616,516.014099 678.161377,513.161011 686.149780,515.521606 
	C688.041504,516.080566 690.018921,516.349365 692.227722,516.807861 
	C692.983704,520.386719 691.443665,523.572571 689.767517,526.528442 
	C685.745667,533.621094 681.451721,540.559387 677.272583,547.562927 
	C673.519653,553.852051 669.773376,560.145081 665.825562,566.741943 
z"/>
<path fill="#000000" opacity="1.000000" stroke="none" 
	d="
M468.365967,474.343628 
	C432.612122,521.623962 398.404633,569.615723 362.074493,616.012573 
	C355.609650,624.268799 348.810822,632.267761 341.068207,639.398376 
	C338.247009,641.996582 335.256927,644.218872 330.599396,644.454651 
	C331.583038,639.901123 334.309509,636.782471 336.674744,633.560730 
	C350.081024,615.299316 365.000458,598.243103 379.079285,580.516296 
	C383.947510,574.386597 388.069763,567.752136 392.353088,561.203735 
	C400.440674,548.839478 408.613464,536.520691 418.055725,525.065857 
	C425.666870,515.832336 431.794373,505.319000 439.808136,496.487854 
	C451.245911,483.883392 461.023499,469.993713 472.126923,457.167267 
	C473.851105,455.175537 475.949371,451.331299 478.674011,453.332825 
	C481.756714,455.597382 478.579712,458.731506 477.089355,461.139099 
	C474.376770,465.521179 471.432281,469.759766 468.365967,474.343628 
z"/>
<path fill="#000000" opacity="1.000000" stroke="none" 
	d="
M617.667114,776.905640 
	C612.205444,778.345703 607.171387,780.222473 600.956116,778.448730 
	C604.285339,767.688477 607.977966,757.656677 615.736633,749.706238 
	C617.981323,747.406067 620.231079,745.134583 621.420349,742.206543 
	C624.260620,735.213196 629.287842,730.077942 634.477600,724.797302 
	C641.589966,717.560303 648.211975,722.158325 650.634705,728.870422 
	C651.541504,731.382690 652.266541,733.939819 653.880737,736.124207 
	C655.826904,738.757812 658.324036,741.092834 661.483215,741.452393 
	C667.460876,742.132812 673.547974,741.982239 678.863647,746.579834 
	C659.706665,758.609009 639.059204,768.046265 617.667114,776.905640 
z"/>
<path fill="#000000" opacity="1.000000" stroke="none" 
	d="
M570.881470,490.945343 
	C585.531311,470.491180 598.818115,449.342377 614.843872,430.526459 
	C629.224854,413.641693 641.917725,395.518280 656.242004,378.660034 
	C657.855652,376.760956 659.592285,374.954071 661.392029,373.229828 
	C662.538025,372.131836 664.042969,371.596924 665.487549,372.637482 
	C667.109009,373.805511 666.420715,375.351593 665.661499,376.653870 
	C664.237305,379.096832 662.728333,381.495880 661.149048,383.842163 
	C644.771545,408.173676 626.538452,431.125305 608.942627,454.560730 
	C588.250427,482.120148 567.921143,509.955414 546.897766,537.268555 
	C541.620117,544.125122 536.320068,550.973389 530.324707,557.250671 
	C528.244873,559.428223 526.409729,559.931091 523.915344,557.919250 
	C520.998535,555.566650 523.082153,553.718811 524.435303,552.018372 
	C533.974976,540.030029 543.571960,528.086792 553.219055,516.184631 
	C559.627441,508.278229 565.512207,500.016083 570.881470,490.945343 
z"/>
<path fill="#000000" opacity="1.000000" stroke="none" 
	d="
M625.612183,234.623962 
	C628.340820,231.455566 630.813293,228.535263 633.332275,225.655640 
	C635.122803,223.608795 637.285583,222.093735 639.971191,221.454132 
	C644.783691,220.307922 647.101807,222.711838 645.571716,227.401047 
	C643.860779,232.644882 641.503418,237.648987 638.331543,242.135986 
	C626.801697,258.446198 616.859741,275.789856 605.563599,292.242554 
	C598.387695,302.694122 590.434082,312.516663 579.763550,319.730927 
	C578.526855,320.567108 577.234863,321.335602 575.907959,322.017670 
	C575.364868,322.296844 574.660889,322.263000 573.535095,322.456757 
	C572.092041,317.922882 573.560181,313.801575 574.949707,309.902863 
	C579.970032,295.817688 588.539001,283.654266 596.651917,271.296570 
	C605.155884,258.343231 615.242126,246.585205 625.612183,234.623962 
z"/>
<path fill="#000000" opacity="1.000000" stroke="none" 
	d="
M664.530029,804.551025 
	C670.035583,798.035095 675.325989,791.655212 682.562195,787.680420 
	C700.020752,778.090210 712.560242,763.685730 723.312317,747.385986 
	C727.985474,740.301636 732.708008,733.248474 737.514893,726.254578 
	C738.593262,724.685608 739.338562,722.680176 741.637207,721.883484 
	C742.684143,724.233582 741.333496,726.170105 740.697144,728.064087 
	C736.318054,741.097900 728.118042,751.803528 719.495483,762.207092 
	C708.450195,775.533691 696.948547,788.454102 684.580322,800.580688 
	C677.691467,807.335144 672.389343,815.190552 669.358521,824.324341 
	C664.045410,840.335693 651.519287,847.123901 636.462585,850.906189 
	C634.669128,851.356689 632.818970,851.430603 631.049500,850.757446 
	C628.590820,849.821960 627.846924,848.333130 629.985229,846.334229 
	C643.210266,833.970947 652.722412,818.543518 664.530029,804.551025 
z"/>
<path fill="#000000" opacity="1.000000" stroke="none" 
	d="
M559.162354,193.185104 
	C560.938721,191.717163 562.145264,189.997284 564.221497,189.734558 
	C566.485413,190.824631 566.069031,192.838837 566.203186,194.578827 
	C566.815002,202.515121 564.699280,209.806686 560.403076,216.379974 
	C552.400330,228.624405 544.248718,240.772842 536.041748,252.881729 
	C533.699158,256.338104 530.736389,259.312805 527.086060,261.454468 
	C524.527222,262.955719 521.809998,263.833740 519.209412,261.595947 
	C516.594177,259.345612 515.307251,256.379303 516.591980,253.084442 
	C524.254761,233.431335 533.234558,214.603119 550.231140,200.946304 
	C553.211975,198.551224 556.014343,195.934052 559.162354,193.185104 
z"/>
<path fill="#000000" opacity="1.000000" stroke="none" 
	d="
M600.842407,542.225586 
	C594.431519,537.177979 593.108093,533.453674 596.752930,524.413330 
	C604.360107,505.545227 615.779297,489.350342 632.664368,477.499603 
	C636.947021,474.493835 640.355957,476.180389 640.949646,481.541656 
	C641.684814,488.179810 638.973694,494.065796 635.738586,499.461365 
	C629.153870,510.443390 622.183777,521.202515 615.096497,531.870117 
	C613.006104,535.016479 610.083252,537.642334 607.363342,540.325745 
	C605.716553,541.950500 603.811035,543.483398 600.842407,542.225586 
z"/>
<path fill="#000000" opacity="1.000000" stroke="none" 
	d="
M321.270630,685.576782 
	C320.005493,686.130371 319.099365,686.569519 318.148315,686.863281 
	C316.833771,687.269226 315.439178,687.433838 314.473175,686.205688 
	C313.615448,685.115234 314.326263,683.966187 314.747742,682.905151 
	C317.313690,676.445496 321.479736,671.053345 326.213562,666.084106 
	C338.963470,652.700012 351.728607,639.329956 364.562775,626.026794 
	C372.156769,618.155273 377.684509,608.843933 383.343872,599.617615 
	C387.182526,593.359619 391.464722,587.427551 396.125275,581.764709 
	C397.045258,580.646790 397.831787,579.231689 399.945282,579.434692 
	C400.279388,583.482117 398.135834,586.786072 396.429382,590.018433 
	C392.768463,596.952942 389.534058,604.065918 386.502594,611.280273 
	C382.060913,621.850891 375.499481,630.992188 367.961090,639.547607 
	C356.734772,652.288391 345.813080,665.300781 333.176575,676.725342 
	C329.576385,679.980225 325.790161,682.939758 321.270630,685.576782 
z"/>
<path fill="#000000" opacity="1.000000" stroke="none" 
	d="
M508.385406,709.978394 
	C513.373352,710.082825 512.405823,713.012207 511.253204,715.495911 
	C507.209930,724.208435 502.012054,732.054932 493.723724,737.407471 
	C485.898651,742.460754 478.132690,747.488892 471.980591,754.769409 
	C469.429108,757.788940 467.806152,761.116699 466.044250,764.462280 
	C462.945465,770.346619 460.433380,776.549072 456.433960,781.937805 
	C450.084412,790.492981 441.524750,795.202148 430.761108,797.108948 
	C438.294617,780.966003 444.637238,764.865417 462.420563,757.490295 
	C473.634277,752.839722 479.324188,742.365417 485.553375,732.696533 
	C490.063751,725.695496 494.567963,718.684082 501.471802,713.669128 
	C503.506897,712.190857 505.607422,710.876343 508.385406,709.978394 
z"/>
<path fill="#000000" opacity="1.000000" stroke="none" 
	d="
M295.760925,300.741333 
	C300.226440,296.489685 304.968384,293.288818 310.061371,290.539398 
	C311.950592,293.208801 310.499634,295.132599 309.686127,297.032654 
	C307.203918,302.830048 302.957306,307.420227 298.496124,311.610535 
	C288.382874,321.109680 279.929565,332.062988 270.689423,342.323212 
	C269.575684,343.559875 268.604248,344.961426 267.346222,346.025757 
	C255.512772,356.037201 246.997131,368.310852 241.665939,382.873383 
	C240.989319,384.721588 240.646423,387.158844 237.908905,388.189209 
	C235.519577,383.180542 234.285004,378.798431 238.865555,373.968719 
	C246.814255,365.587555 252.121674,355.434082 257.669159,345.319733 
	C263.993378,333.789093 273.706451,324.578247 282.612213,314.913239 
	C286.898438,310.261627 291.208069,305.631561 295.760925,300.741333 
z"/>
<path fill="#000000" opacity="1.000000" stroke="none" 
	d="
M649.346252,370.169006 
	C643.073608,382.737579 633.349792,391.838165 623.067932,400.396942 
	C613.166077,408.639404 603.091248,416.674133 592.885986,424.606384 
	C599.145081,414.782166 606.155823,405.529541 613.801453,396.818665 
	C622.481934,386.928772 630.766663,376.775879 638.177002,365.893219 
	C640.711365,362.171356 644.023376,359.044098 647.576660,356.260651 
	C649.213440,354.978516 650.775208,353.226471 653.731506,353.883820 
	C654.361328,359.722473 651.635742,364.706177 649.346252,370.169006 
z"/>
<path fill="#000000" opacity="1.000000" stroke="none" 
	d="
M185.571014,503.608887 
	C182.958160,505.972839 180.555084,508.030060 177.454910,509.002655 
	C174.653458,509.881531 173.117737,509.168762 172.787979,505.906036 
	C171.530869,493.468323 181.186646,475.219330 192.336060,469.288757 
	C197.458969,466.563782 200.906082,468.342957 201.109879,474.112335 
	C201.301834,479.546234 199.682083,484.640656 196.861099,489.259186 
	C193.736053,494.375488 190.090118,499.120331 185.571014,503.608887 
z"/>
<path fill="#000000" opacity="1.000000" stroke="none" 
	d="
M570.217773,802.339844 
	C567.399902,803.958496 564.843506,807.151367 561.970886,805.149292 
	C559.276123,803.271362 560.616272,799.521118 561.140442,796.713623 
	C562.928772,787.134888 565.682434,777.932129 573.270691,771.039185 
	C574.889526,769.568787 576.588562,768.325684 578.613403,767.452148 
	C585.110840,764.648926 588.062378,766.702332 587.671936,773.801758 
	C587.173828,782.859802 581.881104,789.547485 576.523926,796.152161 
	C574.755676,798.332214 572.520264,800.133301 570.217773,802.339844 
z"/>
<path fill="#000000" opacity="1.000000" stroke="none" 
	d="
M677.519592,433.445801 
	C673.791870,438.615692 669.777039,443.019989 664.812256,446.450531 
	C663.204224,447.561646 661.357727,448.824677 659.304810,447.631805 
	C657.381592,446.514282 657.857849,444.395203 657.922913,442.646484 
	C658.392639,430.029968 663.415039,419.553558 673.073975,411.411499 
	C675.186951,409.630402 677.605103,407.491638 680.662659,408.979980 
	C684.003845,410.606476 684.264221,413.964752 684.099060,417.180847 
	C683.790222,423.196198 681.053650,428.303253 677.519592,433.445801 
z"/>
<path fill="#000000" opacity="1.000000" stroke="none" 
	d="
M207.917679,449.290955 
	C209.299286,443.271973 211.529312,438.219208 216.538071,434.856567 
	C217.789642,434.016266 219.060379,433.090393 220.638794,433.801819 
	C222.301392,434.551178 222.214722,436.181030 222.237335,437.661957 
	C222.333420,443.954224 215.484085,452.773590 209.066849,454.595215 
	C207.098297,453.371216 207.893692,451.427429 207.917679,449.290955 
z"/>
<path fill="#000000" opacity="1.000000" stroke="none" 
	d="
M789.506348,544.503784 
	C791.716431,542.780212 793.345215,540.806152 795.886780,540.228943 
	C799.652771,546.689453 799.989807,552.556030 796.468872,554.178833 
	C793.141052,555.712646 790.841003,554.051208 789.590942,550.721680 
	C787.711670,551.684570 785.968445,552.583435 784.220093,553.471985 
	C782.676086,554.256653 781.126282,555.029968 779.015137,555.041443 
	C782.420349,551.602051 785.825500,548.162659 789.506348,544.503784 
z"/>
<path fill="#000000" opacity="1.000000" stroke="none" 
	d="
M815.748779,319.438416 
	C816.751038,322.176056 817.922607,324.820465 814.483459,326.019287 
	C811.512878,327.054779 809.774414,325.035431 808.693054,322.613190 
	C807.075745,318.990204 804.349243,315.882019 803.628052,311.856232 
	C803.332458,310.205841 803.112122,308.402527 804.977844,307.474274 
	C806.568054,306.683136 807.871887,307.710266 809.033936,308.645905 
	C812.411377,311.365448 813.700989,315.420685 815.748779,319.438416 
z"/>
<path fill="#000000" opacity="1.000000" stroke="none" 
	d="
M377.532349,528.404236 
	C379.033325,525.435974 380.457153,522.825378 381.649475,520.112976 
	C382.684662,517.758118 384.602539,516.737244 386.824738,515.881958 
	C390.230865,514.570923 391.034088,516.476990 390.981934,519.212646 
	C390.893311,523.862793 385.553558,530.952393 381.005737,532.511169 
	C377.219482,533.808838 375.890900,532.562378 377.532349,528.404236 
z"/>
<path fill="#000000" opacity="1.000000" stroke="none" 
	d="
M274.846100,795.255371 
	C271.714478,792.608093 269.817657,789.807190 271.091370,785.887329 
	C271.655060,784.152649 273.085571,783.195312 274.845795,783.017212 
	C278.827820,782.614136 280.728607,785.495972 282.680511,788.219666 
	C284.305847,790.487610 284.666382,792.832520 282.660645,795.035522 
	C280.358093,797.564575 277.784973,797.541748 274.846100,795.255371 
z"/>
<path fill="#000000" opacity="1.000000" stroke="none" 
	d="
M208.459045,685.580505 
	C205.225464,687.943787 201.710220,687.296753 201.386246,684.189697 
	C200.841721,678.967346 198.856323,674.642029 195.550064,670.351379 
	C203.290359,670.033142 210.712219,679.036865 208.459045,685.580505 
z"/>
<path fill="#000000" opacity="1.000000" stroke="none" 
	d="
M396.996857,845.179810 
	C401.882965,850.075134 402.292389,853.879211 398.567902,857.313354 
	C394.170349,861.367920 388.425751,860.970947 383.909332,855.934570 
	C385.938873,855.934570 387.647308,855.959106 389.354767,855.929993 
	C394.420074,855.843445 396.477081,852.831970 394.650970,848.031433 
	C393.828583,845.869507 392.236694,843.455200 396.996857,845.179810 
z"/>
<path fill="#000000" opacity="1.000000" stroke="none" 
	d="
M743.524780,223.728806 
	C749.373718,223.695450 751.881531,227.923721 754.247559,231.774200 
	C755.619629,234.007141 753.953674,235.953522 751.244751,236.155624 
	C748.535828,236.357712 741.709656,230.707733 741.145996,227.985214 
	C740.749817,226.071365 741.630859,224.791824 743.524780,223.728806 
z"/>
<path fill="#000000" opacity="1.000000" stroke="none" 
	d="
M791.511353,288.383789 
	C787.581421,288.956177 785.889465,286.427979 784.198914,283.969208 
	C782.699890,281.789001 782.609070,279.618439 784.831970,277.856873 
	C786.896240,276.220947 788.863037,277.004303 790.635132,278.488678 
	C793.890930,281.215820 794.321899,284.859314 791.511353,288.383789 
z"/>
<path fill="#000000" opacity="1.000000" stroke="none" 
	d="
M378.472229,567.580444 
	C375.879517,573.265747 373.307739,578.525757 367.165771,581.141052 
	C366.689240,576.805298 371.639343,566.581604 374.849670,565.035156 
	C376.846161,564.073425 378.899017,563.868774 378.472229,567.580444 
z"/>
<path fill="#000000" opacity="1.000000" stroke="none" 
	d="
M859.162659,425.361450 
	C861.149597,426.664917 861.641724,424.921265 862.572510,424.166321 
	C864.385681,422.695801 866.223694,422.151825 868.457520,423.936493 
	C867.103149,426.386871 864.807129,427.301422 862.759766,427.808716 
	C858.135437,428.954681 856.690063,431.808075 856.935242,436.190796 
	C857.095215,439.050385 856.965332,441.926178 856.550049,444.835693 
	C854.790588,438.832001 853.424683,432.754913 855.036072,426.452515 
	C855.526367,424.535065 857.068298,423.917938 859.162659,425.361450 
z"/>
<path fill="#000000" opacity="1.000000" stroke="none" 
	d="
M413.742920,157.153198 
	C415.429993,156.929581 416.744629,156.731018 418.043640,156.805191 
	C419.258423,156.874542 420.391205,157.550385 420.655640,158.763824 
	C421.338287,161.896317 418.879517,162.674957 416.718567,163.471222 
	C414.163361,164.412781 411.368927,167.546021 408.960052,163.687943 
	C407.342224,161.096817 409.554108,159.463333 411.587585,158.168289 
	C412.140320,157.816284 412.769562,157.584351 413.742920,157.153198 
z"/>
<path fill="#000000" opacity="1.000000" stroke="none" 
	d="
M322.265625,819.309998 
	C318.530182,821.238831 313.868347,819.394226 313.140717,815.979858 
	C312.625000,813.559692 314.000702,811.512512 316.195953,812.213013 
	C319.231537,813.181519 323.090332,814.269104 322.265625,819.309998 
z"/>
<path fill="#000000" opacity="1.000000" stroke="none" 
	d="
M608.145996,567.135254 
	C609.961365,565.212524 611.410706,563.363037 614.326477,562.632629 
	C613.564453,566.367249 611.753052,569.223450 609.869934,572.006348 
	C608.842407,573.524841 607.401062,575.318604 605.420959,573.785828 
	C603.347595,572.180908 604.848145,570.575439 606.209534,569.218140 
	C606.798584,568.630859 607.349609,568.005432 608.145996,567.135254 
z"/>
<path fill="#000000" opacity="1.000000" stroke="none" 
	d="
M472.575562,241.787155 
	C470.579254,243.774567 468.632141,245.135162 466.316345,243.232788 
	C464.855255,242.032547 465.781403,240.537064 466.538300,239.233170 
	C467.962097,236.780365 470.264984,235.651566 472.793640,236.577530 
	C476.434814,237.910812 473.762543,239.843842 472.575562,241.787155 
z"/>
<path fill="#000000" opacity="1.000000" stroke="none" 
	d="
M444.863892,267.052490 
	C445.925873,265.934998 446.827393,265.080627 448.049500,266.101166 
	C448.961334,266.862610 448.811646,267.926514 448.339081,268.837311 
	C447.124420,271.178406 446.055634,273.735992 443.108154,274.395721 
	C442.636200,274.501404 441.634247,274.007019 441.505066,273.593811 
	C440.555817,270.557312 443.566986,269.408600 444.863892,267.052490 
z"/>
<path fill="#000000" opacity="1.000000" stroke="none" 
	d="
M449.487671,148.237396 
	C451.718079,147.181946 453.715820,146.624283 454.907135,148.997025 
	C455.685760,150.547821 454.842499,151.911621 453.476166,152.805115 
	C451.913727,153.826843 450.165100,154.778122 448.542175,153.101212 
	C446.916382,151.421341 447.585052,149.801132 449.487671,148.237396 
z"/>
<path fill="#000000" opacity="1.000000" stroke="none" 
	d="
M403.883179,847.380371 
	C402.288452,846.344360 401.456451,845.103149 403.133545,844.167480 
	C405.273987,842.973206 407.623810,843.608582 409.755951,844.603088 
	C410.726532,845.055847 411.260254,846.032654 410.844971,847.074951 
	C410.122223,848.888916 408.532288,848.618652 407.053101,848.326233 
	C406.090546,848.135925 405.155182,847.808167 403.883179,847.380371 
z"/>
<path fill="#000000" opacity="1.000000" stroke="none" 
	d="
M668.292847,178.627426 
	C670.533386,179.617844 671.740417,180.878922 670.418518,182.959595 
	C669.617981,184.219635 668.195801,184.347244 666.888733,183.744797 
	C665.350769,183.035995 663.869995,181.970413 664.119141,180.087555 
	C664.432556,177.719101 666.242493,178.066727 668.292847,178.627426 
z"/>
<path fill="#000000" opacity="1.000000" stroke="none" 
	d="
M505.175659,145.696350 
	C506.013489,147.895172 505.468964,149.267624 503.498291,149.783524 
	C502.032471,150.167267 500.936310,149.416733 500.323212,148.107254 
	C499.805664,147.001877 499.834564,145.804672 500.753235,144.920990 
	C502.284973,143.447510 503.702484,144.031082 505.175659,145.696350 
z"/>
<path fill="#000000" opacity="1.000000" stroke="none" 
	d="
M765.750244,250.351318 
	C764.715393,247.986023 765.291870,246.832718 767.416626,248.119934 
	C769.129028,249.157303 771.016174,250.549301 770.806274,253.321091 
	C767.926697,254.646027 767.244690,252.025543 765.750244,250.351318 
z"/>
<path fill="#000000" opacity="1.000000" stroke="none" 
	d="
M641.862793,679.809021 
	C643.034546,678.244690 644.013916,676.936462 644.993286,675.628235 
	C645.430603,676.010498 645.867981,676.392761 646.305359,676.775024 
	C644.914551,679.587219 643.020874,682.029968 640.003662,684.272766 
	C639.711609,682.153748 641.064758,681.259094 641.862793,679.809021 
z"/>
</svg>